<svg viewBox="0 0 90 90" xmlns="http://www.w3.org/2000/svg"><path d="M63.918 50.286c.037-.103.082-.14.113-.234.053-.164.072-.337.102-.51.04-.235.087-.471.127-.712.043-.253.075-.518.128-.763s.12-.47.203-.687c.12-.314.22-.595.305-.865.138-.433.267-.953.357-1.501.067-.406.128-.84.05-1.273-.043-.27-.065-.505-.316-.647a.702.702 0 00-.306-.077 1.17 1.17 0 00-.458.102c-.183.074-.36.198-.509.305-.125.092-.313.277-.445.349l-.359.048c.03-.083-.036-.247-.014-.346.284-1.37.787-6.01.764-8.283-.052-5.18 1.5-7.24-2.245-11.765-.941-1.138-2.374-2.473-3.603-3.321.647.169 1.15.244 1.878.603-1.6-1.292-3.02-1.997-4.219-2.616.578.09 1.315.276 1.916.372-3.878-1.917-6.52-2.142-9.056-2.125l-.64.069c-1.117.007-1.572.067-2.372.237-2.5-.112-6.01-.422-9.544 1.292.5-.028.924-.047 1.323-.05-1.583.737-3.345 1.689-5.32 3.826a21.7 21.7 0 011.22-.636c-1.508 1.425-3.186 3.682-3.994 5.745-.886 2.263-.691 12.238-.346 13.97.318 1.596.013 2.632-.022 2.77-.012-.006-.012-.019-.025-.025-.228-.109-.583-.233-.857-.11-.272.144-.37.399-.424.67-.097.447.013.87.102 1.272.142.67.311 1.324.466 1.832.057.185.127.371.196.585s.128.436.16.679.048.517.068.771c.02.235.013.446.034.679.015.17.018.343.06.509.045.173.114.317.202.455l.025.05c.018.142.167.34.17.648.001.239.084.52.06.797s-.065.547-.103.806a4.86 4.86 0 00-.054.527c-.006.115.009.25.025.381.036.305.134.586.32.868.108.167.047.177.226.265.154.073.292.126.442.145.196.025.393.052.552.102.218.068.378.116.549.25.236.185.436.313.775.563.027.085.083.152.111.244.095.315.242.703.407 1.069.252.556.608 1.185.942 1.764l.013.271c1.269 5.64.362 10.262-2.083 13.78 4.216 8.626 10.855 7.846 16.715 8.133 5.748.28 14.455-4.753 13.869-8.184-1.971-3.342-2.36-8.037-1.817-12.175.153-1.127.273-1.57.545-2.146.25-.553.416-.863.651-1.35.324-.673.499-1.357.61-1.933.017-.081.037-.183.07-.286.1-.07.224-.134.283-.172a4.03 4.03 0 01.738-.382c.09-.033.183-.065.28-.127a.983.983 0 00.254-.28c.186-.269.306-.575.357-.89s.1-.563.09-.793v-.076c-.013-.299-.097-.681-.065-1.044s.107-.712.178-.966.12-.323.167-.453z" fill="#e4be81"/><path d="M45.477 54.96c-.247-.725-1.39-1.163-1.886-.442-.36.523.542.73.863.43.228-.213.669-.231 1.023.011zm2.197-.044c.016-.47 1.006-1.428 1.589-.912.528.468-.131.99-.56.833-.38-.14-.569-.192-1.03.079zm-2.711 4.339c.554.028 1.2.399 1.813.38s1.887-.825 2.53-.677 2.191 1.294 3.75.457c.571-.307.399.425.202.536-.773.436-2.934-.152-3.86-.268s-1.628.382-2.617.474-.866-.344-1.951-.355c-1.141-.01-3.617.963-4.086.65s-.32-.785.379-.463c.855.393 2.479-.802 3.84-.734zm.538 5.829c-.061.694-.73 1.906-2.372 2.056-.615.056-2.026-.27-3.319-1.012-.62-.356-.705.005-.24.39 2.88 2.397 5.68 2.704 7.576 2.704 1.923 0 5.88-.594 8.024-3.047.656-.751.503-1.113-.373-.385-.899.747-2.09.811-2.932.912-1.178.14-2.931-.69-3.003-2.118-.029-.576-.309-1.201-.543-1.399-.71.283-1.654.404-2.243.075-.378.586-.506 1.052-.575 1.824zm-7.132-18.506c.338-.001 1.182-.283 1.382-.454.365-.314.078-.211-.074-.093-.311.241-1.145.355-1.362.341-.281-.018-.831-.005-1.457-.188-.234-.07-.357-.13-.334-.09s.123.13.348.21a4.985 4.985 0 001.497.274z"/><path d="M35.267 45.497c-.007.024.061.112.102.076a4.882 4.882 0 011.578-.661.802.802 0 00-.077.305c-.012.468.347.852.815.865s.852-.346.865-.814a.836.836 0 00-.128-.483c.456.033.9.115 1.349.254.495.154 1.009.499 1.501.662.007-.017-.062-.173-.229-.255-1.002-.676-1.922-1.03-3.308-1.018-1.053.01-1.745.557-2.468 1.07zm2.926-.687c.083-.019.175.073.204.204s-.02.26-.102.28-.174-.073-.203-.204.019-.261.101-.28zm.102.636c.051.02.08.099.051.178s-.102.146-.152.127-.055-.098-.026-.178.077-.146.127-.127z"/><path d="M48.194 16.145c-1.116.007-2.075.11-2.875.28-2.672-.327-6.884-.188-10.254 1.73a28.7 28.7 0 011.323-.05c-1.582.737-3.393 2.01-5.369 4.147.447-.246.865-.458 1.247-.636a14.28 14.28 0 00-3.537 5.216c-.886 2.263-.6 12.237-.254 13.969.318 1.596.11 2.533.076 2.671-.012-.007-.012-.02-.025-.025-.228-.11-.54-.2-.814-.077-.272.144-.38.442-.433.713-.097.448.013.895.102 1.297.142.671.328 1.299.483 1.807.057.185.11.397.178.61s.12.445.153.688.056.483.076.738c.019.234.03.48.051.712.015.17.035.343.077.509.045.173.115.32.203.458.007.01.019.014.026.025.018.141.13.354.134.662.001.238.076.512.052.789s-.065.555-.102.814a4.891 4.891 0 00-.051.534c-.006.115.01.226.025.356.037.305.08.59.265.872.108.168.217.242.397.33.153.073.394.152.544.171.196.025.4.052.56.102.218.069.37.155.483.229a2.068 2.068 0 00-.483-.28 3.076 3.076 0 00-.534-.153c-.147-.03-.394-.1-.52-.171a.722.722 0 01-.32-.304c-.159-.27-.187-.517-.214-.796a3.265 3.265 0 010-.56l.026-.305c.026-.247.045-.536.05-.814s-.08-.544-.102-.789c-.025-.28-.153-.485-.185-.636.075.11.154.214.229.306.222.27.393.49.509.661s.178.28.178.28-.045-.104-.153-.28-.272-.43-.483-.712c-.085-.115-.2-.22-.28-.357s-.145-.295-.178-.458-.042-.336-.051-.508c-.013-.23-.015-.45-.026-.687-.01-.25-.023-.514-.05-.764s-.06-.48-.128-.712c-.103-.352-.195-.7-.28-.993-.12-.416-.263-.887-.381-1.399l-.077-.356c.074.188.165.282.306.432.374.402.636.026.636.026.305.236.826.982 1.73 2.977-.068-.136-.186-.188-.305-.255-.219-.122-.65.085-.687.407-.065.56.378 2.086.432 1.782.04-.229-.244-.995-.076-1.349.087-.184.44-.233.712-.127.072.028.046-.175 0-.306v-.025c-.697-1.86-1.342-3.16-1.883-3.791-.32-.374-.657-.57-.814-.56-.063.005-.103.113-.127.203 0-.098.005-.183.025-.28.057-.255.142-.53.357-.636.202-.112.467-.051.687.051.948.443 1.244 1.098 1.679 1.896.214.393.668 1.664.929 2.71-.132-1.122-.449-2.078-.56-2.417l1.463.025c.013.29.036.577.102.865.103.46.325.919.687 1.247.486.43 1.11.606 1.704.763.965.262 1.957.38 2.952.382 1.31.004 2.625-.092 3.918-.305.46-.076.923-.168 1.374-.306.152-.046.31-.081.458-.152a.803.803 0 00.28-.204c.24-.296.35-.656.433-.992.1-.391.156-.782.229-1.17a2.03 2.03 0 00-.026-.84c.76-.57 1.683-.636 2.138-.637.473 0 1.266.173 2.01.56.001.11.005.223.025.331.079.387.174.78.28 1.17.088.336.19.7.433.993a.81.81 0 00.28.203c.15.07.306.11.458.153.453.132.914.21 1.374.28 1.296.196 2.609.275 3.918.254.995-.014 1.99-.133 2.952-.407.592-.165 1.224-.378 1.704-.814.358-.333.565-.786.662-1.247a4.88 4.88 0 00.102-.89l2.009-.433c-.23.447-.427 1.132-.61 1.857.26-.705.677-1.562.942-2.01.066-.111.235-.378.407-.534s.367-.31.585-.458c.15-.1.312-.192.483-.254.226-.077.483-.166.662-.051a.565.565 0 01.254.33.48.48 0 00-.203-.025c-.186.004-.456.084-.763.33-.627.503-1.181 1.61-2.036 4.326-.013.041-.013.086-.025.128-.011.073.001.17.05.152.447-.156.784-.005.84.357.06.382-.419 1.06-.305 1.145s.276-.278.407-.586c.148-.348.27-.659.254-.941-.036-.671-.546-1.014-.967-.61.981-2.49 1.417-3.042 1.73-3.258 0 0 .128.303.586 0 .202-.133.412-.293.509-.508.02.34-.042.68-.102 1.017-.125.686-.31 1.317-.484 1.832-.053.158-.113.33-.178.51-.08.222-.13.46-.178.712s-.093.528-.127.788c-.032.242-.044.476-.076.713-.024.174-.058.352-.102.509s-.125.284-.23.407-.222.255-.33.356c-.132.123-.253.223-.356.33l-.255.28c.068-.077.178-.156.28-.254.107-.102.219-.213.357-.33.112-.096.243-.207.356-.331s.221-.256.28-.433c.052-.164.072-.336.101-.509.041-.235.088-.472.128-.712.042-.254.075-.519.127-.763s.12-.47.204-.687c.12-.314.22-.621.305-.891.137-.433.267-.953.356-1.501.068-.406.129-.84.051-1.272-.043-.27-.13-.57-.382-.713a.702.702 0 00-.305-.076c-.164-.001-.315.067-.458.127-.183.074-.36.172-.509.28-.125.091-.221.185-.33.28l-.382.05c.03-.083.056-.18.076-.28.284-1.369 1.04-5.92 1.018-8.192-.052-5.18 1.2-7.332-2.545-11.858a16.244 16.244 0 00-3.282-3.002c.648.169 1.334.43 2.061.789-1.6-1.292-2.973-2.18-4.173-2.799l1.756.28c-3.878-1.917-7.184-2.486-9.72-2.468zm6.005 9.49c1.354.002 2.461.29 3.13 1.171 1.945 2.563 2.488 4.445 2.722 6.616s.188 3.76.942 4.961c.7 1.118.852 4.482.738 5.42l-1.502.153a1.329 1.329 0 00-.254-.331c-.33-.308-.746-.503-1.145-.662-.684-.274-1.419-.398-2.137-.483a17.655 17.655 0 00-1.832-.127 13.09 13.09 0 00-1.476.076c-.584.058-1.152.132-1.73.229-.534.09-1.077.19-1.603.33-.203.055-.41.13-.611.204-.137.05-.273.11-.407.204a1.8 1.8 0 00-.687.941c-.032.101-.06.2-.076.306-.61-.307-1.453-.488-2.112-.484-.683.006-1.692.255-2.163.585a1.896 1.896 0 00-.636-.788c-.136-.091-.295-.13-.433-.178a6.462 6.462 0 00-.61-.178 17.032 17.032 0 00-1.578-.331 25.85 25.85 0 00-1.756-.204 12.653 12.653 0 00-1.45-.05c-.617.018-1.244.045-1.857.127-.718.094-1.432.25-2.112.534-.397.164-.82.35-1.145.662a1.42 1.42 0 00-.407.737l-.891-.05c-.208-.585-.81-2.38-.662-3.385.145-.985.828-.993.916-2.417s-.256-6.653.179-8.117 2.359-4.442 4.07-4.961c2.96-.899 5.376.835 9.695.661 2.834-.113 6.295-1.173 8.88-1.17zm-.076 16.972c.238-.014.475-.005.712 0 .61.01 1.228.03 1.832.102.71.085 1.41.22 2.061.483.388.16.78.336 1.069.611.226.214.377.511.381.814.01.416-.016.825-.101 1.222-.094.425-.275.838-.586 1.12-.42.392-.992.591-1.577.762-.936.268-1.923.367-2.9.382-1.298.02-2.587-.035-3.868-.229a10.357 10.357 0 01-1.349-.28 3.176 3.176 0 01-.432-.152c-.086-.043-.166-.077-.204-.128-.204-.233-.288-.56-.382-.89-.012-.045-.014-.108-.025-.153.032-.09.02-.24 0-.432.136-.07.212-.226.178-.382s-.176-.276-.33-.28c-.037-.1-.063-.19-.103-.254v-.128a1.586 1.586 0 01.687-1.196c.102-.073.224-.127.357-.178.188-.07.387-.125.585-.178a16.766 16.766 0 011.552-.33 25.812 25.812 0 011.73-.23l.713-.076zm-16.59.636h.356c.356.006.71.046 1.069.077.578.05 1.156.114 1.73.203.53.082 1.06.175 1.578.305.199.05.395.11.585.179.133.048.253.106.356.178.285.193.503.484.61.814.055.166.098.335.103.509-.039.065-.093.154-.128.254a.354.354 0 00-.33.28c-.032.154.07.288.203.356-.018.195-.007.368.026.458-.011.047-.04.081-.051.128-.09.331-.181.679-.382.916a.48.48 0 01-.178.127l-.433.153c-.434.133-.868.204-1.323.28-1.278.21-2.595.308-3.893.305-.977-.002-1.936-.101-2.875-.356-.587-.164-1.202-.351-1.628-.738-.315-.277-.486-.67-.586-1.094-.091-.396-.105-.831-.101-1.247 0-.303.133-.598.356-.814.284-.279.657-.447 1.043-.611.647-.272 1.353-.414 2.061-.509.603-.08 1.222-.135 1.832-.153z"/><path d="M54.987 44.225c-.829-.013-2.39.249-3.384.814-.172.072-.261.237-.255.254 1.05-.283 2.117-.631 3.206-.712a.904.904 0 00-.152.483c-.013.468.346.853.814.866s.852-.347.865-.815a.825.825 0 00-.076-.381c.471.15.907.396 1.272.763.038.038.108-.052.102-.076-.501-.725-1.53-1.182-2.392-1.196zm.788.509c.084-.011.163.07.179.203s-.044.27-.128.28-.162-.096-.178-.229.043-.244.127-.254zm.051.61c.049.026.04.129 0 .204s-.104.101-.152.076-.04-.103 0-.178.104-.127.152-.102zM47.04 61.898a7.104 7.104 0 01-1.844-.142l-.56-.12c-.133-.027-.21-.036-.218-.02s.06.071.192.145.326.166.569.254.536.17.856.223.67.075 1.018.054l.043-.004c.092-.007.319-.03.6-.09s.612-.16.917-.29.58-.282.77-.406.292-.213.262-.213-.134.03-.277.078l-.561.187a7.599 7.599 0 01-1.739.342l-.028.002zm-4.86-7.138c.067.134.185.285.342.395.108.074.226.13.342.172s.23.066.329.082c.197.032.333.03.333.03s-.13-.023-.315-.083-.417-.164-.594-.324a1.126 1.126 0 01-.341-.597c-.024-.112-.032-.239-.023-.372s.037-.272.076-.404c.072-.248.185-.473.278-.633s.165-.257.165-.257l-.2.23c-.114.147-.259.36-.364.613-.056.133-.1.278-.123.425s-.023.295 0 .431c.018.11.053.209.095.291zm8.716-1.42c-.042-.125-.112-.273-.208-.413s-.214-.272-.332-.378-.235-.19-.32-.244l-.141-.083.13.113c.08.073.184.179.286.307s.2.278.274.428a2.07 2.07 0 01.198.682c.01.114.009.239-.013.363s-.064.247-.124.358c-.11.204-.278.357-.413.453s-.232.14-.232.14l.25-.106c.15-.078.346-.211.495-.421.08-.113.141-.245.18-.383s.052-.28.046-.415a1.505 1.505 0 00-.076-.401zm-9.407-12.267c1.055.505.772 1.4-.193 1.299-1.015-.107-3.65-.937-5.249-.825-1.333.093-2.37.795-3.372 1.132.943-1.043 1.688-1.544 3.158-1.869s4.865-.116 5.656.263zm8.919.222c-.684.37-.427 1.144.545 1.033 1.988-.227 3.413-.797 4.927-.75s2.526.33 3.245.613 1.148-.157.172-.57-2.174-.775-3.551-.855c-1.898-.11-3.857-.27-5.339.53zm13.24 11.53l-.004-.082c-.013-.299-.028-.673.006-1.035s.107-.704.178-.959.133-.417.133-.417-.077.152-.173.398-.207.59-.27.962-.07.736-.065 1.056c0 .094.003.183.005.265a4.07 4.07 0 01-.02.597c-.034.286-.14.588-.299.854a.83.83 0 01-.205.242c-.078.058-.17.099-.258.14-.302.141-.544.31-.71.438s-.26.215-.26.215l.276-.19a3.95 3.95 0 01.73-.375c.09-.034.19-.07.286-.132a.942.942 0 00.256-.261c.185-.27.317-.588.368-.903s.037-.582.028-.813zM31.695 56.09c-.504-1.923-.474-3.93-.775-5.887-.033-.24-.154-1.041-.075-.425.24 1.893.183 3.816.513 5.697.328 1.808 1.229 3.449 2.226 4.969.846 1.251 1.888 2.359 3.005 3.37-1.653-1.572-3.062-3.412-4.032-5.483-.353-.72-.665-1.462-.862-2.24z"/><path d="M61.656 55.775c.082-.419.148-.917.193-1.444.05-.571.07-1.18.065-1.772s-.038-1.165-.08-1.665a26.975 26.975 0 00-.199-1.71s.019.172.045.467.061.715.086 1.209.038 1.062.026 1.655-.049 1.21-.113 1.8c-.076.69-.185 1.345-.316 1.878-.11.443-.261.934-.492 1.427-.453.972-.92 2.063-1.442 3.024-.492.905-1.04 1.686-1.462 2.235s-.714.875-.714.875.3-.312.74-.848 1.014-1.301 1.537-2.204c.273-.474.534-.98.784-1.49s.49-1.025.725-1.512c.324-.673.505-1.35.617-1.925zM32.62 71.595c.224 3.468 1.195 5.604 5.815 7.444 6.902 2.749 16.275 1.472 19.141-1.027s3.7-3.586 2.843-6.235c2.009.492 4.214.825 6.201.847 1.386.014 2.181-.44 3.014-.735 1.418.61 2.905.399 2.719 3.2-.149 2.232 4.672 3.697 4.035 6.777 3.09.2 6.376-.34 8.406 3.834 1.983.811 3.826 3.154 5.116 4.312H.307c1.184-1.421 7.121-6.166 9.531-6.855 2.133-.609 3.706.29 4.762-1.362s-.842-2.506 3.503-5.422 9.85-4.703 13.893-4.778z"/><path d="M30.984 73.413l.64.411c2.35-3.886 2.592-8.67 1.704-13 .638 4.375.101 9.072-2.344 12.59z"/><path d="M35.152 82.083c-6.699-2.954-10.516-8.818-13.513-7.458.382-2.28 1.527-2.857 3.822-3.18 1.635-.231.862-1.265 2.331-1.516 1.619-.277 2.99.43 3.562 1.781 0 0-1.25 1.581-.896 3.724.254 1.533 1.215 4.234 4.694 6.65z" fill="#106eb0"/><path d="M60.864 73.631l.884-.427c-1.855-3.139-2.564-7.77-2.028-11.873-.787 4.064-.503 8.4 1.144 12.3z"/><path d="M59.209 81.306c5.993-3.52 6.604-6.68 10.437-9.42-1.659-1.625-2.744-.71-3.817-.763-1.063-.052-1.813-.426-2.768-.29-.974.137-1.726.25-1.934 1.088 1.638 3.377 1.389 5.392-1.918 9.385z" fill="#106eb0"/><path d="M54.484 46.436c-.338-.026-1.16-.365-1.347-.55-.343-.339-.064-.216.08-.088.294.263 1.117.435 1.334.436.283.002.83.054 1.468-.086.238-.053.365-.104.339-.066-.029.043-.132.12-.362.185a4.986 4.986 0 01-1.512.17z"/></svg>